<svg height="511pt" viewBox="0 -4 511.99525 511" width="511pt" xmlns="http://www.w3.org/2000/svg"><path d="m511.296875 282.460938c-1.886719-4.40625-6.988281-6.445313-11.394531-4.558594l-35.285156 15.128906 28.707031-45.941406c1.644531-2.636719 1.757812-5.949219.296875-8.6875-1.460938-2.742188-4.273438-4.496094-7.378906-4.601563-3.101563-.105469-6.027344 1.453125-7.667969 4.089844l-27.320313 43.769531v-39.171875c0-4.792969-3.886718-8.675781-8.675781-8.675781-4.792969 0-8.679687 3.882812-8.679687 8.675781v69.425781c.011718.070313.023437.136719.042968.207032.03125.570312.121094 1.132812.269532 1.683594-.617188-.175782-1.164063-.46875-1.789063-.617188-2.269531-.589844-4.597656-.933594-6.941406-1.03125-14.386719-46.953125-46.769531-86.308594-90.078125-109.464844l4.339844-17.355468 31.328124-124.09375c4.550782-17.628907-1.132812-36.320313-14.726562-48.429688-13.59375-12.113281-32.8125-15.609375-49.800781-9.0625-16.988281 6.542969-28.890625 22.035156-30.84375 40.136719l-13.449219 120.761719-1.910156 17.179687.632812.390625c-3.105468-.15625-6.171875-.476562-9.3125-.476562s-6.28125.320312-9.421875.488281l.867188-.226563-1.910157-17.355468-13.570312-120.710938c-1.953125-18.101562-13.859375-33.589844-30.84375-40.136719-16.988281-6.546875-36.210938-3.046875-49.804688 9.0625-13.589843 12.109375-19.273437 30.800781-14.722656 48.429688l31.585938 124.007812 4.339844 17.183594.492187-.132813c-61.347656 32.585938-99.570313 96.503907-99.25 165.96875v61.179688c-43.039063 7.808594-69.421875 18.308594-69.421875 29.9375 0 23.953125 112.640625 43.390625 251.660156 43.390625 139.023438 0 251.660156-19.4375 251.660156-43.390625 0-10.671875-22.257812-20.382812-59.171874-27.953125l2.855468-7.808594 6.074219-16.402343 9.023437-24.558594 3.125-8.589844c7.214844-20.265625-.378906-42.832031-18.378906-54.609375l59.875-25.671875c4.40625-1.878906 6.453125-6.976562 4.574219-11.382812zm0 0" fill="#ecf0f1"/><path d="m332.714844 1.5c-13.253906-2.394531-26.910156.808594-37.714844 8.847656-10.804688 8.042969-17.792969 20.203125-19.300781 33.589844l-13.449219 120.710938-1.910156 17.179687 11.453125 7.117187 41.914062 26.207032 16.054688 9.980468 9.980469-39.746093 31.328124-124.09375c3.320313-13.050781 1.078126-26.894531-6.191406-38.226563-7.273437-11.335937-18.917968-19.144531-32.164062-21.566406zm0 0" fill="#bdc3c7"/><path d="m227.625 43.9375c-1.953125-18.101562-13.859375-33.589844-30.84375-40.136719-16.988281-6.546875-36.210938-3.046875-49.804688 9.0625-13.589843 12.109375-19.273437 30.800781-14.722656 48.429688l31.585938 124.007812 4.339844 17.183594 17.007812-4.601563 45.820312-12.582031 12.0625-3.296875-1.910156-17.355468zm0 0" fill="#bdc3c7"/><path d="m371.070312 61.292969-31.328124 124.09375c-5.355469-2.757813-10.859376-5.21875-16.488282-7.375-15.425781-6.136719-31.589844-10.21875-48.074218-12.148438-4.253907-.609375-8.59375-.957031-12.929688-1.214843l13.449219-120.710938c1.953125-18.101562 13.855469-33.589844 30.84375-40.136719s36.207031-3.046875 49.800781 9.0625 19.277344 30.800781 14.726562 48.429688zm0 0" fill="#bdc3c7"/><path d="m433.898438 429.5c43.042968 7.808594 69.421874 18.308594 69.421874 29.9375 0 23.953125-112.636718 43.390625-251.660156 43.390625-139.019531 0-251.660156-19.4375-251.660156-43.390625 0-11.628906 26.382812-22.128906 69.421875-29.9375zm0 0" fill="#35495e"/><path d="m402.476562 429.5c35.621094 7.808594 57.457032 18.308594 57.457032 29.9375 0 23.953125-93.21875 43.390625-208.273438 43.390625-115.050781 0-208.269531-19.4375-208.269531-43.390625 0-11.628906 21.832031-22.128906 57.457031-29.9375zm0 0" fill="#2c3e50"/><path d="m241.160156 164.648438c-4.425781.257812-8.675781.605468-13.015625 1.214843-16.488281 1.929688-32.652343 6.011719-48.078125 12.148438-5.53125 2.148437-10.945312 4.578125-16.226562 7.289062l-31.585938-124.007812c-4.550781-17.628907 1.132813-36.320313 14.722656-48.429688 13.59375-12.109375 32.816407-15.609375 49.804688-9.0625 16.984375 6.546875 28.890625 22.035157 30.84375 40.136719zm0 0" fill="#bdc3c7"/><g fill="#ff5364"><path d="m228.144531 165.863281c-16.488281 1.929688-32.652343 6.011719-48.078125 12.148438l-30.980468-120.972657c-2.167969-8.386718-.742188-17.304687 3.933593-24.597656 4.675781-7.296875 12.183594-12.3125 20.714844-13.84375 1.859375-.347656 3.746094-.523437 5.640625-.519531 15.894531.007813 29.238281 11.96875 30.980469 27.769531zm0 0"/><path d="m234.304688 207.777344-43.5625 11.886718-5.554688-21.78125 45.820312-12.582031zm0 0"/><path d="m271.792969 188.945312 41.914062 26.207032-1.125 4.511718-43.566406-11.886718zm0 0"/><path d="m354.234375 57.039062-30.980469 120.972657c-15.425781-6.136719-31.589844-10.21875-48.074218-12.148438l17.789062-120.015625c1.742188-15.800781 15.085938-27.761718 30.980469-27.769531 1.890625-.003906 3.78125.171875 5.640625.519531 8.527344 1.53125 16.035156 6.546875 20.710937 13.84375 4.679688 7.292969 6.105469 16.210938 3.933594 24.597656zm0 0"/></g><path d="m231.007812 185.300781-45.820312 12.582031-5.121094-19.871093c15.425782-6.136719 31.589844-10.21875 48.078125-12.148438zm0 0" fill="#df4d60"/><path d="m185.1875 197.882812-17.007812 4.601563-4.339844-17.183594c5.28125-2.710937 10.695312-5.140625 16.226562-7.289062zm0 0" fill="#95a5a5"/><path d="m243.070312 182.003906-12.0625 3.296875-2.863281-19.4375c4.339844-.609375 8.589844-.957031 13.015625-1.214843zm0 0" fill="#95a5a5"/><path d="m231.007812 185.300781 3.296876 22.476563-43.5625 11.886718-5.554688-21.78125zm0 0" fill="#bdc3c7"/><path d="m323.253906 178.011719-9.546875 37.140625-41.914062-26.207032 3.386719-23.082031c16.484374 1.929688 32.648437 6.011719 48.074218 12.148438zm0 0" fill="#df4d60"/><path d="m275.179688 165.863281-3.386719 23.082031-11.453125-7.117187 1.910156-17.179687c4.335938.257812 8.675781.605468 12.929688 1.214843zm0 0" fill="#95a5a5"/><path d="m271.792969 188.945312 41.914062 26.207032-1.125 4.511718-43.566406-11.886718zm0 0" fill="#bdc3c7"/><path d="m339.742188 185.386719-9.980469 39.746093-16.054688-9.980468 9.546875-37.140625c5.628906 2.15625 11.132813 4.617187 16.488282 7.375zm0 0" fill="#95a5a5"/><path d="m433.898438 450.761719v-82.441407c1.1875-101.839843-80.398438-185.367187-182.238282-186.578124-101.839844 1.210937-183.421875 84.738281-182.238281 186.578124v82.441407s43.390625 26.03125 182.238281 26.03125 182.238282-26.03125 182.238282-26.03125zm0 0" fill="#bdc3c7"/><path d="m399.238281 458.398438c10.402344-3.667969 17.34375-13.515626 17.304688-24.542969v-65.535157c0-103.042968-73.824219-186.578124-164.882813-186.578124s-164.878906 83.535156-164.878906 186.578124v65.535157c-.042969 11.027343 6.902344 20.875 17.300781 24.542969 21.9375 7.679687 66.976563 18.394531 147.578125 18.394531 80.601563 0 125.640625-10.714844 147.578125-18.394531zm0 0" fill="#e6e7e8"/><path d="m467.308594 366.0625c-.449219 2.75-1.144532 5.449219-2.082032 8.070312l-3.125 8.59375-9.023437 24.558594-6.074219 16.398438-9.894531 27.078125c-2.390625 1.402343-4.886719 2.621093-7.464844 3.644531-18.628906 6.582031-37.875 11.261719-57.445312 13.96875-4.773438.78125-7.726563 1.128906-7.726563 1.128906l6.164063-63.957031 1.734375-17.527344 2.515625-26.121093.871093-9.027344c.308594-2.796875.890626-5.558594 1.734376-8.242188 5.941406-19.421875 23.859374-32.695312 44.171874-32.714844 1.246094 0 2.492188.089844 3.730469.257813 2.375.09375 4.730469.441406 7.027344 1.042969 23.765625 5.632812 39.046875 28.78125 34.886719 52.847656zm0 0" fill="#e57e25"/><path d="m457.070312 371.007812c-.519531 2.828126-1.246093 5.613282-2.171874 8.332032l-2.949219 8.851562-8.417969 25.167969-5.726562 16.832031-8.160157 24.214844c-18.628906 6.582031-37.875 11.261719-57.445312 13.96875l8.070312-60.65625 2.429688-18.226562 3.558593-27.160157 1.300782-9.371093c.378906-2.878907.988281-5.722657 1.820312-8.507813 5.816406-20.042969 20.480469-33.0625 36.015625-32.105469 2.796875.179688 5.546875.796875 8.15625 1.820313 18.3125 7.117187 28.117188 32.371093 23.519531 56.839843zm0 0" fill="#f29c1f"/><path d="m467.308594 366.0625c-.449219 2.75-1.144532 5.449219-2.082032 8.070312l-3.125 8.59375-18.398437-4.425781c-3.222656-.503906-5.894531-2.769531-6.914063-5.871093-1.015624-3.101563-.207031-6.511719 2.09375-8.824219 2.300782-2.316407 5.707032-3.140625 8.8125-2.140625zm0 0" fill="#e57e25"/><path d="m420.359375 363.808594c-.921875 3.902344-4.402344 6.667968-8.417969 6.679687-.671875.003907-1.34375-.082031-1.996094-.257812l-35.058593-8.332031.871093-9.027344c.308594-2.796875.890626-5.558594 1.734376-8.242188l36.445312 8.765625c4.640625 1.113281 7.507812 5.765625 6.421875 10.414063zm0 0" fill="#e57e25"/><path d="m453.078125 407.285156-6.074219 16.398438-21.785156-5.207032c-3.222656-.5-5.894531-2.765624-6.914062-5.867187-1.015626-3.101563-.207032-6.511719 2.09375-8.828125 2.300781-2.3125 5.707031-3.140625 8.8125-2.136719zm0 0" fill="#e57e25"/><path d="m401.875 404.074219c-.933594 3.882812-4.417969 6.617187-8.417969 6.59375-.695312.027343-1.394531-.03125-2.082031-.171875l-20.738281-4.949219 1.734375-17.527344 23.082031 5.554688c2.25.53125 4.191406 1.941406 5.394531 3.914062 1.207032 1.96875 1.578125 4.339844 1.027344 6.585938zm0 0" fill="#e57e25"/><path d="m442.578125 320.589844c-.8125 0-1.617187-.113282-2.398437-.335938-3.71875-1.070312-6.28125-4.472656-6.28125-8.339844v-69.425781c0-4.792969 3.886718-8.675781 8.679687-8.675781 4.789063 0 8.675781 3.882812 8.675781 8.675781v39.171875l27.351563-43.769531c2.542969-4.074219 7.902343-5.316406 11.976562-2.777344 4.074219 2.539063 5.316407 7.902344 2.777344 11.976563l-43.390625 69.421875c-1.589844 2.546875-4.386719 4.089843-7.390625 4.078125zm0 0" fill="#71c285"/><path d="m442.578125 320.589844c-4.121094 0-7.671875-2.898438-8.5-6.933594s1.292969-8.09375 5.078125-9.71875l60.746094-26.035156c4.386718-1.804688 9.414062.246094 11.28125 4.605468 1.871094 4.359376-.109375 9.414063-4.441406 11.347657l-60.746094 26.03125c-1.078125.46875-2.242188.707031-3.417969.703125zm0 0" fill="#71c285"/><path d="m147.527344 320.589844c-14.378906 0-26.035156-11.65625-26.035156-26.03125 0-14.378906 11.65625-26.035156 26.035156-26.035156 14.375 0 26.03125 11.65625 26.03125 26.035156 0 14.375-11.65625 26.03125-26.03125 26.03125zm0 0" fill="#2c3e50"/><path d="m251.660156 320.589844c-14.378906 0-26.03125-11.65625-26.03125-26.03125 0-14.378906 11.652344-26.035156 26.03125-26.035156s26.035156 11.65625 26.035156 26.035156c0 14.375-11.65625 26.03125-26.035156 26.03125zm0 0" fill="#2c3e50"/><path d="m199.59375 337.945312c-4.792969 0-8.679688-3.882812-8.679688-8.675781v-8.679687c0-4.792969 3.886719-8.675782 8.679688-8.675782s8.675781 3.882813 8.675781 8.675782v8.679687c0 4.792969-3.882812 8.675781-8.675781 8.675781zm0 0" fill="#bdc3c7"/><path d="m208.269531 381.335938h-17.355469c-4.792968 0-8.675781-3.886719-8.675781-8.675782 0-4.792968 3.882813-8.679687 8.675781-8.679687h17.355469c4.792969 0 8.679688 3.886719 8.679688 8.679687 0 4.789063-3.886719 8.675782-8.679688 8.675782zm0 0" fill="#802d40"/><path d="m208.269531 329.269531h-17.355469c-4.792968 0-8.675781-3.886719-8.675781-8.679687 0-4.792969 3.882813-8.675782 8.675781-8.675782h17.355469c4.792969 0 8.679688 3.882813 8.679688 8.675782 0 4.792968-3.886719 8.679687-8.679688 8.679687zm0 0" fill="#ff5364"/><path d="m147.527344 285.878906c0 4.792969-3.886719 8.679688-8.679688 8.679688-4.792968 0-8.679687-3.886719-8.679687-8.679688 0-4.792968 3.886719-8.679687 8.679687-8.679687 4.792969 0 8.679688 3.886719 8.679688 8.679687zm0 0" fill="#ecf0f1"/><path d="m251.660156 285.878906c0 4.792969-3.882812 8.679688-8.675781 8.679688s-8.679687-3.886719-8.679687-8.679688c0-4.792968 3.886718-8.679687 8.679687-8.679687s8.675781 3.886719 8.675781 8.679687zm0 0" fill="#ecf0f1"/></svg>